<svg xmlns="http://www.w3.org/2000/svg" viewBox="0 0 48 48"><path fill="#ff9800" d="M34.511,1l5.5,5.5l-5.5,5.5l-5.5-5.5L34.511,1z"/><path fill="#ff9800" d="M30.583,2.516h7.857v7.995h-7.857V2.516z"/><path fill="#ffeb3b" d="M34.511,4.087c-1.302,0-2.357,1.055-2.357,2.357s1.055,2.357,2.357,2.357s2.357-1.055,2.357-2.357S35.813,4.087,34.511,4.087z"/><rect width="28" height="24" x="10" y="19" fill="#e8eaf6"/><rect width="28" height="3" x="10" y="40" fill="#c5cae9"/><rect width="5" height="7" x="13" y="30" fill="#01579b"/><rect width="5" height="7" x="30" y="30" fill="#01579b"/><path fill="#d84315" d="M24,31L24,31c-1.657,0-3,1.343-3,3v9h6v-9C27,32.343,25.657,31,24,31z"/><polygon fill="#d32f2f" points="8,27 18.713,27 24,20 30.096,27 40,27 40,14 8,14"/><polygon fill="#b71c1c" points="24,16 15,27 18.713,27 24,20 30.096,27 33.596,26.936"/></svg>