<svg xmlns="http://www.w3.org/2000/svg" viewBox="0 0 50 50">
  <path d="M25.001953 1.0527344C24.784703 1.0527344 24.567219 1.124125 24.386719 1.265625L1.3867188 19.212891C0.95071875 19.552891 0.87289062 20.180234 1.2128906 20.615234C1.5538906 21.051234 2.1821875 21.127109 2.6171875 20.787109L4 19.707031L4 46C4 46.553 4.448 47 5 47L18 47L18 26L32 26L32 34.509766C32.312 34.334766 32.644 34.189469 33 34.105469C33.051 29.627469 36.62 26 41 26C42.891 26 44.629 26.678641 46 27.806641L46 19.707031L47.384766 20.787109C47.566766 20.930109 47.784 21 48 21C48.297 21 48.592062 20.868234 48.789062 20.615234C49.128062 20.179234 49.050234 19.552891 48.615234 19.212891L41 13.269531L41 6C41 5.447 40.552 5 40 5L36 5C35.735 5 35.479969 5.1049688 35.292969 5.2929688C35.105969 5.4809687 35 5.734 35 6L35 8.5878906L25.615234 1.265625C25.434734 1.124125 25.219203 1.0527344 25.001953 1.0527344 z M 20 28L20 47L30 47L30 28L20 28 z M 41 28C37.7 28 35 30.799219 35 34.199219L35 36L33.900391 36C32.800391 36 32 36.900391 32 37.900391L32 48C32 49.1 32.800391 50 33.900391 50L48.099609 50C49.099609 50 50 49.099609 50 48.099609L50 37.900391C50 36.900391 49.199609 36 48.099609 36L47 36L47 34.199219C47 30.799219 44.3 28 41 28 z M 41 30C43.2 30 45 31.899219 45 34.199219L45 36L37 36L37 34.199219C37 31.899219 38.8 30 41 30 z M 27 36C27.552 36 28 36.448 28 37C28 37.552 27.552 38 27 38C26.448 38 26 37.552 26 37C26 36.448 26.448 36 27 36 z M 34 38L48 38L48 48L34 48L34 38 z M 41 41C40.2 41 39.599609 41.600391 39.599609 42.400391C39.599609 42.800391 39.799609 43.100391 40.099609 43.400391L40.099609 44.699219C40.099609 45.199219 40.5 45.599609 41 45.599609C41.5 45.599609 41.900391 45.199219 41.900391 44.699219L41.900391 43.400391C42.200391 43.100391 42.400391 42.800391 42.400391 42.400391C42.400391 41.600391 41.8 41 41 41 z" fill="#FFFFFF" />
</svg>