<svg xmlns="http://www.w3.org/2000/svg" width="48" height="48" viewBox="0 0 48 48"><path fill="#E8EAF6" d="M41,42H17V26.21l12.538-8.823L41,25.862V42z"/><path fill="#B71C1C" d="M43,29.25l-13.5-9.036L16,29.25V24l13.5-9l0,0L43,24V29.25z"/><path fill="#C5CAE9" d="M17 38H41V42H17z"/><path fill="#D84315" d="M30 32H37V42H30z"/><path fill="#01579B" d="M22 28H27V33H22z"/><path fill="#FFB74D" d="M13,16c-2.758,0-5-2.243-5-5s2.242-5,5-5s5,2.243,5,5S15.758,16,13,16"/><path fill="#607D8B" d="M8.429,42h9.143L18,36l3-2v-8c0-4.418-3.582-8-8-8s-8,3.582-8,8v8l3,2L8.429,42z"/></svg>