<svg xmlns="http://www.w3.org/2000/svg" viewBox="0 0 50 50">
  <path d="M6 5C3.800781 5 2 6.800781 2 9L2 31C2 32.953125 3.421875 34.566406 5.28125 34.90625L6.59375 42.3125C6.976563 44.476563 9.054688 45.945313 11.21875 45.5625L44.6875 39.59375C46.851563 39.210938 48.320313 37.132813 47.9375 34.96875L44.09375 13.3125C44.078125 13.214844 44.046875 13.121094 44 13.03125L44 9C44 6.800781 42.199219 5 40 5 Z M 6 7L40 7C41.117188 7 42 7.882813 42 9L42 12L4 12L4 9C4 7.882813 4.882813 7 6 7 Z M 4 17L42 17L42 31C42 32.117188 41.117188 33 40 33L6 33C4.882813 33 4 32.117188 4 31 Z M 9 20L9 22L25 22L25 20 Z M 44 24.21875L45.96875 35.3125C46.164063 36.410156 45.445313 37.429688 44.34375 37.625L10.875 43.59375C9.777344 43.789063 8.757813 43.070313 8.5625 41.96875L7.3125 35L40 35C42.199219 35 44 33.199219 44 31Z" fill="#FFFFFF" />
</svg>