<svg xmlns="http://www.w3.org/2000/svg" viewBox="0 0 100 100"><path fill="#f9e65c" d="M75.5,47.5c0-1.875-0.861-3.548-2.208-4.648c0.122-0.433,0.208-0.88,0.208-1.352c0-2.761-2.239-5-5-5 s-9,0-9,0s0,17.094,0,19.5c0,2.485,2.015,4.5,4.5,4.5c1.965,0,3.618-1.268,4.232-3.023C70.607,57.354,72.5,55.406,72.5,53 c0-0.1-0.023-0.193-0.029-0.291C74.279,51.675,75.5,49.732,75.5,47.5z"/><path fill="#1f212b" d="M64,61c-2.757,0-5-2.243-5-5V36.5c0-0.276,0.224-0.5,0.5-0.5h9c3.033,0,5.5,2.468,5.5,5.5 c0,0.375-0.047,0.755-0.146,1.176C75.222,43.909,76,45.649,76,47.5c0,2.214-1.142,4.281-3,5.473c0,0.01,0,0.019,0,0.027 c0,2.543-1.914,4.656-4.415,4.948C67.805,59.786,66.002,61,64,61z M60,37v19c0,2.206,1.794,4,4,4c1.687,0,3.198-1.08,3.759-2.688 c0.067-0.191,0.244-0.324,0.446-0.334C70.333,56.867,72,55.12,72,53c0-0.034-0.006-0.067-0.011-0.101 c-0.007-0.053-0.014-0.104-0.018-0.158c-0.012-0.19,0.085-0.371,0.251-0.466C73.936,51.295,75,49.466,75,47.5 c0-1.657-0.738-3.21-2.025-4.261c-0.154-0.126-0.219-0.332-0.165-0.523C72.94,42.257,73,41.871,73,41.5c0-2.481-2.019-4.5-4.5-4.5 H60z"/><path fill="#ead6c7" d="M68,74c-4.325-1.622-7.188-2.659-8.907-3.27c-0.286-0.102-0.54-0.191-0.764-0.27 C57.528,70.178,57,69.425,57,68.576v-3.034c4.442-2.889,8-7.543,8-9.542c0-1,0-4,0-4c2,0,2.381-1.898,3-4c0.57-1.935,1-4,1-5 c0-1.875-3.5-2.5-3.5-2.5l0.125-13c0,0-9.125-2-15.625-2s-15.625,2-15.625,2v13.014C33.621,40.611,31,41.277,31,43 c0,1,0.43,3.065,1,5c0.619,2.102,1,4,3,4c0,0,0,3,0,4c0,1.999,3.558,6.653,8,9.542v3.034c0,0.849-0.528,1.602-1.329,1.884 c-0.224,0.079-0.478,0.169-0.764,0.27C39.188,71.341,36.325,72.378,32,74c-8,3-8,11-8,11h52C76,85,76,77,68,74z"/><path fill="#565fa1" d="M76,85H24c0,0,0-8,8-11c4.32-1.62,7.19-2.66,8.91-3.27c0.28-0.1,0.54-0.19,0.76-0.27 c0.66-0.23,1.14-0.79,1.28-1.45C44.46,69.5,46.8,70,50,70c3.21,0,5.54-0.49,7.05-0.98c0.15,0.66,0.62,1.21,1.28,1.44 c0.22,0.08,0.48,0.17,0.76,0.27c1.72,0.61,4.59,1.65,8.91,3.27C76,77,76,85,76,85z"/><path fill="#fff" d="M61.473,71.586c-0.959-0.348-1.751-0.632-2.383-0.857c-0.28-0.1-0.54-0.19-0.76-0.27 c-0.66-0.23-1.13-0.78-1.28-1.44C55.54,69.51,53.21,70,50,70c-3.2,0-5.54-0.5-7.05-0.99c-0.14,0.66-0.62,1.22-1.28,1.45 c-0.22,0.08-0.48,0.17-0.76,0.27c-0.633,0.224-1.424,0.508-2.383,0.857L41.625,85h16.75L61.473,71.586z"/><path fill="#1f212b" d="M50 56c-1.977 0-2.863-1.151-2.9-1.2-.166-.221-.121-.534.1-.7.22-.164.532-.121.697.097C47.93 54.237 48.555 55 50 55c1.454 0 2.078-.771 2.104-.805.169-.215.481-.257.699-.09.217.167.262.476.097.694C52.863 54.849 51.977 56 50 56zM50 68c-2.106 0-4.527-.85-7-2.458l.545-.838C45.855 66.206 48.087 67 50 67s4.145-.794 6.455-2.296L57 65.542C54.527 67.15 52.106 68 50 68z"/><path fill="#1f212b" d="M76,86H24c-0.552,0-1-0.447-1-1c0-0.087,0.099-8.73,8.649-11.937 c4.504-1.689,7.341-2.714,8.927-3.275l0.751-0.268c0.333-0.116,0.575-0.39,0.645-0.719C41.991,68.711,42,68.643,42,68.58v-2.506 c-4.242-2.913-8-7.61-8-10.074v-3.131c-1.781-0.508-2.329-2.404-2.82-4.106l-0.139-0.479C30.561,46.657,30,44.298,30,43 c0-2.771,4.461-2.985,4.97-3.001l0.062,1.999C33.667,42.043,32,42.514,32,43c0,0.852,0.403,2.835,0.959,4.717l0.143,0.491 C33.726,50.371,34.051,51,35,51c0.552,0,1,0.447,1,1v4c0,1.491,3.24,5.899,7.545,8.702C43.829,64.887,44,65.202,44,65.54v3.04 c0,0.206-0.023,0.408-0.072,0.639c-0.214,1.009-0.954,1.847-1.93,2.186l-0.75,0.268c-1.583,0.561-4.407,1.58-8.897,3.265 c-5.639,2.114-6.953,6.963-7.259,9.063h49.823c-0.29-2.102-1.576-6.93-7.267-9.063c-4.49-1.685-7.314-2.704-8.893-3.264 l-0.768-0.273c-0.961-0.334-1.682-1.143-1.913-2.158C56.024,69.005,56,68.787,56,68.58v-3.04c0-0.338,0.171-0.653,0.455-0.838 C60.76,61.899,64,57.491,64,56v-4c0-0.553,0.448-1,1-1c0.949,0,1.274-0.629,1.898-2.792l0.143-0.491C67.597,45.835,68,43.852,68,43 c0-0.486-1.667-0.956-3.031-1.001L65.03,40c0.509,0.016,4.97,0.229,4.97,3c0,1.298-0.561,3.657-1.041,5.283l-0.139,0.479 c-0.491,1.702-1.039,3.599-2.82,4.106V56c0,2.464-3.758,7.161-8,10.074v2.506c0,0.066,0.009,0.145,0.028,0.23 c0.074,0.325,0.311,0.594,0.63,0.705l0.77,0.273c1.582,0.561,4.419,1.585,8.923,3.274C76.901,76.27,77,84.913,77,85 C77,85.553,76.552,86,76,86z"/><path fill="#1f212b" d="M50 71c-3.444 0-5.911-.563-7.375-1.035-.263-.085-.407-.366-.323-.629.085-.263.368-.408.629-.322C44.328 69.464 46.686 70 50 70c.517 0 1.003-.017 1.475-.04.274-.027.511.197.525.474.014.275-.198.511-.474.524C51.038 70.983 50.534 71 50 71zM50 61c-4.696 0-7.724-2.23-7.85-2.325-.166-.124-.199-.358-.075-.524.124-.165.358-.2.525-.076C42.629 58.097 45.565 60 50 60s7.371-1.903 7.4-1.925c.167-.124.401-.089.525.076.124.166.09.4-.075.524C57.724 58.77 54.696 61 50 61zM43 43c-.799 0-1.482.589-1.803 1.435C41.378 44.178 41.662 44 42 44c.552 0 1 .448 1 1 0 .552-.448 1-1 1-.502 0-.899-.376-.971-.857C41.015 45.26 41 45.378 41 45.5c0 1.381.895 2.5 2 2.5s2-1.119 2-2.5C45 44.119 44.105 43 43 43zM57 43c-.799 0-1.482.589-1.803 1.435C55.378 44.178 55.662 44 56 44c.552 0 1 .448 1 1 0 .552-.448 1-1 1-.502 0-.899-.376-.971-.857C55.015 45.26 55 45.378 55 45.5c0 1.381.895 2.5 2 2.5s2-1.119 2-2.5C59 44.119 58.105 43 57 43zM53.5 70.787c-.248 0-.463-.185-.496-.437-.035-.273.159-.524.433-.56.344-.044.668-.094.98-.146.275-.048.53.138.577.41.046.272-.138.53-.41.576-.324.055-.662.106-1.02.152C53.542 70.786 53.521 70.787 53.5 70.787zM41.5 85c-.228 0-.433-.156-.487-.388l-3-13c-.062-.269.106-.537.375-.6.27-.062.537.106.6.375l3 13c.062.269-.106.537-.375.6C41.575 84.996 41.537 85 41.5 85zM58.5 85c-.037 0-.075-.004-.113-.013-.269-.063-.437-.331-.375-.6l3-13c.063-.269.331-.437.6-.375.269.063.437.331.375.6l-3 13C58.934 84.844 58.728 85 58.5 85z"/><path fill="#f9e65c" d="M49.943,15.5c-12.391,0-18.483,8.012-18.443,17.75c0.012,2.823,0.438,5.29,1.5,8.25h1.5 c0.567-6.048,2.949-10.99,10-11c1.585-0.002,3.408,0.421,5.5,1c2.082-0.584,3.906-1.006,5.5-1c7.022,0.028,9.434,4.963,10,11H67 c0.999-2.96,1.522-5.427,1.5-8.25C68.422,23.512,62.226,15.5,49.943,15.5z"/><path fill="#1f212b" d="M67,42h-1.5c-0.258,0-0.474-0.196-0.498-0.453C64.338,34.473,61.229,31.023,55.498,31 c-1.631-0.029-3.533,0.468-5.363,0.981c-0.087,0.025-0.181,0.025-0.268,0C47.737,31.393,46.011,31,44.511,31 c-0.003,0-0.007,0-0.011,0c-5.809,0.008-8.829,3.359-9.502,10.547C34.974,41.804,34.758,42,34.5,42H33 c-0.211,0-0.399-0.133-0.471-0.331c-1.06-2.954-1.517-5.471-1.529-8.417c-0.021-5.241,1.733-9.901,4.941-13.123 C39.283,16.773,44.125,15,49.943,15C61.432,15,68.912,22.162,69,33.246c0.021,2.703-0.42,5.141-1.526,8.414 C67.405,41.863,67.214,42,67,42z M65.952,41h0.688c0.984-2.989,1.38-5.256,1.36-7.746C67.917,22.772,60.829,16,49.943,16 c-5.547,0-10.144,1.672-13.294,4.835c-3.019,3.031-4.67,7.439-4.649,12.413c0.011,2.715,0.418,5.053,1.354,7.752h0.694 c0.813-7.392,4.235-10.991,10.451-11c0.003,0,0.008,0,0.012,0c1.58,0,3.341,0.391,5.488,0.981C51.847,30.467,53.778,30,55.468,30 c0.011,0,0.022,0,0.034,0C61.63,30.024,65.144,33.725,65.952,41z"/><path fill="#1f212b" d="M43 37c-1.915 0-3.834.117-5.711.426-.145 0-.289.143-.289.286 0 .143.145.286.289.286 0 0 7.237.429 9.553 1h.145c.145 0 .145 0 .289-.143l.724-1c0-.143 0-.214 0-.357C48 37.497 46 37 43 37zM52 37.497c0 .143 0 .214 0 .357l.724 1c.145.143.145.143.289.143h.145c2.316-.571 9.553-1 9.553-1 .145 0 .289-.143.289-.286 0-.143-.145-.286-.289-.286C60.834 37.117 58.915 37 57 37 54 37 52 37.497 52 37.497zM63 40c-6 0-8.626 1.528-10.634 2.444-.771.373-1.577.564-2.366.573-.789-.008-1.595-.199-2.366-.573C45.626 41.528 43 40 37 40c-2.5 0-4 .5-4 .5 0 2.5 1.5 10.499 9 10.499 3.956 0 6.366-3.09 6.891-5.196C49.006 45.34 49.393 45 49.87 45h.261c.477 0 .863.34.979.803.525 2.106 2.936 5.196 6.891 5.196 7.5 0 9-7.999 9-10.499C67 40.5 65.5 40 63 40zM47.935 45.5c-.38 1.634-2.433 4.499-5.936 4.499-5.32 0-6-5.374-6-7.624 0-.567.25-1.369 1.625-1.369 4.261 0 6.644.988 8.375 1.78.219.1 2 .964 2 2.214C48 45.147 47.978 45.316 47.935 45.5zM58 49.999c-3.502 0-5.555-2.865-5.936-4.499C52.022 45.316 52 45.147 52 45c0-1.25 1.78-2.114 2-2.214 1.731-.792 4.114-1.78 8.375-1.78 1.375 0 1.625.802 1.625 1.369C64 44.625 63.321 49.999 58 49.999z"/><path fill="#fef6aa" d="M48.375 76.5c-2.5 3.5-2.875 8-2.875 8h9c0 0-.5-4.5-3-8H48.375zM46.5 75.5c0 0 1 1 3.5 1s3.5-1 3.5-1l-3.5-5L46.5 75.5z"/><path fill="#1f212b" d="M50,77c-2.676,0-3.807-1.1-3.854-1.146c-0.195-0.195-0.195-0.512,0-0.707 c0.194-0.194,0.507-0.194,0.703-0.004C46.875,75.166,47.795,76,50,76c2.225,0,3.142-0.85,3.151-0.857 c0.199-0.188,0.515-0.187,0.705,0.011c0.191,0.195,0.192,0.507-0.002,0.7C53.807,75.9,52.676,77,50,77z"/><path fill="#1f212b" d="M54.5 85h-9c-.142 0-.278-.061-.373-.167-.095-.105-.14-.247-.125-.389.021-.188.544-4.67 3.09-8.235.161-.223.474-.275.697-.116.225.161.277.473.116.698-1.891 2.646-2.606 5.923-2.826 7.209h7.839c-.222-1.288-.939-4.567-2.826-7.209-.161-.226-.108-.537.116-.698.225-.16.537-.108.697.116 2.546 3.565 3.069 8.047 3.09 8.235.016.142-.03.283-.125.389C54.778 84.939 54.642 85 54.5 85zM56.5 80c-.025 0-.05-.002-.075-.006-.133-.02-.251-.093-.33-.201l-6.5-9c-.162-.224-.111-.537.112-.698.224-.164.536-.111.698.112l6.195 8.577c3.474-2.876 4.4-7.336 4.41-7.382.054-.271.314-.448.588-.393.271.054.446.317.392.588-.042.212-1.084 5.223-5.19 8.303C56.713 79.965 56.607 80 56.5 80z"/><path fill="#1f212b" d="M43.5,80c-0.107,0-0.213-0.035-0.3-0.1c-4.106-3.08-5.148-8.091-5.19-8.303 c-0.054-0.271,0.121-0.533,0.392-0.588c0.268-0.058,0.534,0.121,0.589,0.392c0.009,0.047,0.946,4.513,4.41,7.383l6.195-8.577 c0.161-0.224,0.472-0.276,0.698-0.112c0.224,0.161,0.274,0.475,0.112,0.698l-6.5,9c-0.079,0.108-0.197,0.182-0.33,0.201 C43.55,79.998,43.525,80,43.5,80z"/></svg>